Coordinates
version=1
nRows=14
nColumns=38
inDegrees=no

Units are S.I. units (second, meters, Newtons, ...)
If the header above contains a line with 'inDegrees', this indicates whether rotational values are in degrees (yes) or radians (no).

endheader
time	pelvis_tilt	pelvis_list	pelvis_rotation	pelvis_tx	pelvis_ty	pelvis_tz	hip_flexion_r	hip_adduction_r	hip_rotation_r	knee_angle_r	ankle_angle_r	subtalar_angle_r	mtp_angle_r	hip_flexion_l	hip_adduction_l	hip_rotation_l	knee_angle_l	ankle_angle_l	subtalar_angle_l	mtp_angle_l	lumbar_extension	lumbar_bending	lumbar_rotation	arm_flex_r	arm_add_r	arm_rot_r	elbow_flex_r	pro_sup_r	wrist_flex_r	wrist_dev_r	arm_flex_l	arm_add_l	arm_rot_l	elbow_flex_l	pro_sup_l	wrist_flex_l	wrist_dev_l
7.53	-2.91582	1.48576	1.3175	0.697331	-0.15077	0.925539	-0.135547	0.0187213	-0.079417	0	0.0877616	0	0	0.186252	-0.0686994	-0.272974	0.425738	0.182702	0	0	-0.775371	-0.0169285	0.0636099	1.5708	-0.622945	1.53737	0.964375	0.337632	0	0	1.35189	-0.201455	0.148049	1.10213	1.5708	0	0
7.54	-2.90361	1.48306	1.30538	0.69821	-0.151662	0.925192	-0.132643	0.0195047	-0.0802555	0	0.0908963	0	0	0.188417	-0.0690343	-0.271004	0.42675	0.185285	0	0	-0.777455	-0.0160171	0.0645793	1.5708	-0.632662	1.51636	0.97989	0.349163	0	0	1.34168	-0.200949	0.144418	1.1268	1.5708	0	0
7.55	-3.01043	1.48612	1.39228	0.696088	-0.156712	0.922999	-0.134968	0.0117316	-0.123965	0	0.128685	0	0	0.160048	-0.0621536	-0.307672	0.392754	0.204821	0	0	-0.748005	-0.0113478	0.00541229	1.5708	-0.440019	1.5708	0.746828	0.253477	0	0	1.22713	-0.276198	0.082951	1.18361	1.5708	0	0
7.56	-2.88482	1.48	1.28563	0.700636	-0.153007	0.925108	-0.127386	0.0186404	-0.0808497	0	0.0982039	0	0	0.189306	-0.066827	-0.268992	0.424592	0.188863	0	0	-0.785251	-0.012934	0.0660436	1.5708	-0.643382	1.44895	0.996485	0.384416	0	0	1.32181	-0.199797	0.13396	1.17563	1.5708	0	0
7.57	-2.89778	1.49213	1.28709	0.697694	-0.159617	0.923483	-0.146058	0.01939	-0.114617	0	0.12679	0	0	0.151531	-0.0681071	-0.297979	0.398864	0.207392	0	0	-0.76127	-0.00814425	0.0109485	1.5708	-0.486746	1.5708	0.824203	0.32411	0	0	1.22185	-0.264172	0.0816472	1.21033	1.5708	0	0
7.58	-2.97212	1.48684	1.35915	0.699031	-0.161616	0.922932	-0.138602	0.0120393	-0.119378	0	0.135111	0	0	0.150122	-0.0589405	-0.304474	0.385465	0.209327	0	0	-0.752893	-0.00751746	-0.00340861	1.5708	-0.447881	1.5708	0.765458	0.289528	0	0	1.19085	-0.278852	0.0678311	1.24618	1.5708	0	0
7.59	-2.88438	1.49515	1.27745	0.699993	-0.163451	0.923763	-0.150865	0.0175788	-0.112676	0	0.132444	0	0	0.138515	-0.0625977	-0.295019	0.387086	0.208523	0	0	-0.764895	-0.00110237	-0.0122599	1.5708	-0.450101	1.5708	0.792112	0.290712	0	0	1.1839	-0.289589	0.0581279	1.27237	1.5708	0	0
7.6	-3.03032	1.47894	1.41885	0.702041	-0.165487	0.922074	-0.128988	0.00502567	-0.120209	0	0.145335	0	0	0.148367	-0.0482546	-0.307141	0.369601	0.212063	0	0	-0.742434	-0.00811495	-0.00821444	1.5708	-0.443052	1.5708	0.742745	0.289427	0	0	1.16416	-0.274745	0.068161	1.27022	1.5708	0	0
7.61	-2.83806	1.49898	1.2381	0.70246	-0.167234	0.924052	-0.156835	0.0189109	-0.108391	0	0.139167	0	0	0.12559	-0.0598276	-0.288582	0.378001	0.208348	0	0	-0.769499	0.00420163	-0.0214244	1.5708	-0.450875	1.5708	0.797272	0.300733	0	0	1.16828	-0.295741	0.053927	1.29879	1.5708	0	0
7.62	-2.91063	1.49345	1.3133	0.704279	-0.169666	0.923244	-0.149782	0.0134769	-0.115148	0	0.148056	0	0	0.125298	-0.0517761	-0.29157	0.366707	0.210767	0	0	-0.760573	0.00158019	-0.0162375	1.5708	-0.477597	1.5708	0.822137	0.297545	0	0	1.15694	-0.280496	0.0613643	1.30305	1.5708	0	0
7.63	-2.90495	1.49392	1.31132	0.705373	-0.172172	0.923106	-0.149899	0.0139828	-0.121634	0	0.159103	0	0	0.120111	-0.049731	-0.287832	0.361063	0.209828	0	0	-0.760291	0.00287017	-0.020039	1.5708	-0.484503	1.5708	0.835411	0.2976	0	0	1.1517	-0.283714	0.0600229	1.31262	1.5708	0	0
7.64	-2.93276	1.46877	1.33751	0.709694	-0.165532	0.924237	-0.0744827	0.00463653	-0.121705	0.0739304	0.169106	0	0	0.164812	-0.0445368	-0.26425	0.375424	0.195845	0	0	-0.779512	-0.0117184	0.0526507	1.5708	-0.661551	1.32751	1.01212	0.468877	0	0	1.24266	-0.202878	0.130117	1.28319	1.5708	0	0
7.65	-2.67703	1.50862	1.08724	0.707845	-0.172826	0.925657	-0.11719	0.0133952	-0.134136	0.108556	0.182697	0	0	0.102749	-0.0555274	-0.266032	0.371203	0.203689	0	0	-0.788597	0.00937363	-0.00540799	1.5708	-0.536349	1.56037	0.92296	0.42179	0	0	1.18997	-0.282065	0.0734764	1.315	1.5708	0	0
7.66	-2.89863	1.50464	1.31049	0.709147	-0.17723	0.924454	-0.106073	-0.000720838	-0.153034	0.11812	0.201293	0	0	0.0965808	-0.039702	-0.276694	0.347825	0.205959	0	0	-0.7685	0.00285736	-0.0294567	1.5708	-0.502877	1.5708	0.867847	0.324266	0	0	1.14244	-0.294264	0.0632025	1.333	1.5708	0	0
